<svg width="15" height="14" viewBox="0 0 15 14" fill="none" xmlns="http://www.w3.org/2000/svg">
<path d="M8.42979 1.64282L8.42956 1.64306L7.8529 2.23729L7.49408 2.60703L7.13526 2.23729L6.5586 1.64306L6.55802 1.64247C5.25033 0.290481 3.16001 0.101122 1.77979 1.27706L8.42979 1.64282ZM8.42979 1.64282C9.74082 0.290097 11.8286 0.101263 13.2087 1.2773C14.8241 2.65634 14.9108 5.13813 13.4608 6.63452L13.4607 6.63462M8.42979 1.64282L13.4607 6.63462M13.4607 6.63462L7.79656 12.4831C7.62711 12.658 7.35812 12.658 7.18868 12.4831L1.52478 6.63484M13.4607 6.63462L1.52478 6.63484M1.52478 6.63484C0.07723 5.13835 0.16406 2.65616 1.77971 1.27712L1.52478 6.63484Z" stroke="black"/>
</svg>
